<svg width="713" height="581" viewBox="0 0 713 581" fill="none" xmlns="http://www.w3.org/2000/svg">
<path d="M252.746 386.738C180.703 386.738 122.067 327.622 122.067 254.911C122.067 219.644 135.575 186.528 160.267 161.661C185.075 136.766 217.843 123.054 252.746 123.054C287.78 123.054 320.548 136.766 345.328 161.661C370.151 186.615 383.644 219.659 383.644 254.911C383.644 327.622 325.007 386.738 252.746 386.738ZM535.748 0C570.317 54.6714 590.449 119.568 590.449 188.982C590.332 298.471 525.101 392.766 431.881 434.713C477.431 388.597 505.74 325.051 505.74 254.911C505.74 186.746 479.421 122.793 431.678 74.6576C383.848 26.5659 320.33 0 252.746 0C185.177 0 121.747 26.6095 74.0911 74.6576C26.3045 122.836 0 186.746 0 254.838V254.911V255.245C0 342.205 33.6395 423.936 94.6147 485.405C155.721 546.976 236.9 580.862 323.192 580.935C537.753 580.993 712.414 405.272 712.501 189.07C712.501 121.936 698.571 58.0121 673.545 0H535.748Z" fill="white"/>
</svg>
